<svg width="359" height="120" viewBox="0 0 359 120" fill="none" xmlns="http://www.w3.org/2000/svg">
<path d="M308.395 85.1882C298 85.1882 291.417 77.3579 291.417 66.825C291.417 56.3615 298 48.4619 308.395 48.4619C317.542 48.4619 325.026 53.7283 324.471 68.8346H299.456C299.941 74.5861 302.643 78.8824 308.464 78.8824C312.414 78.8824 315.047 76.9421 316.156 73.3388H324.055C322.947 79.9911 317.542 85.1882 308.395 85.1882ZM299.594 63.4296H316.572C316.156 57.3317 313.245 54.6985 308.395 54.6985C303.059 54.6985 300.357 58.5097 299.594 63.4296Z" fill="#0F0F0F"/>
<path d="M280.027 84.2877V35.7812H288.065V84.2877H280.027Z" fill="#0F0F0F"/>
<path d="M262.074 85.1885C257.362 85.1885 253.412 83.3175 250.641 79.2291V84.2877H242.602V35.7812H250.641V54.3523C253.135 50.5411 257.362 48.4622 262.074 48.4622C269.835 48.4622 276.695 55.2531 276.695 66.6868C276.695 78.259 269.835 85.1885 262.074 85.1885ZM250.433 66.7561C250.433 73.4777 253.689 78.5362 259.441 78.5362C265.123 78.5362 268.449 73.4777 268.449 66.6868C268.449 59.9652 265.123 55.1145 259.441 55.1145C253.689 55.1145 250.433 60.0345 250.433 66.7561Z" fill="#0F0F0F"/>
<path d="M229.199 84.2876V49.363H237.306V84.2876H229.199ZM228.229 39.8003C228.229 37.0285 230.446 34.811 233.218 34.811C235.99 34.811 238.207 37.0285 238.207 39.8003C238.207 42.5721 235.99 44.7895 233.218 44.7895C230.446 44.7895 228.229 42.5721 228.229 39.8003Z" fill="#0F0F0F"/>
<path d="M210.976 85.1887C201.413 85.1887 195.731 80.6152 195.177 73.3393H203.284C203.977 77.2198 206.68 79.0214 211.184 79.0214C215.134 79.0214 217.628 77.2891 217.628 74.5866C217.628 72.4384 216.035 71.0525 213.124 70.4289L206.125 69.043C200.998 67.9343 196.147 65.3703 196.147 59.1338C196.147 52.7587 202.037 48.4624 210.422 48.4624C218.668 48.4624 224.488 51.9271 225.181 59.5496H217.143C216.589 56.2927 214.164 54.5603 210.283 54.5603C206.68 54.5603 204.185 56.2927 204.185 58.718C204.185 61.0741 206.125 62.1828 208.551 62.6678L216.035 64.123C220.747 65.0239 225.805 67.7264 225.805 74.1015C225.805 81.1003 219.499 85.1887 210.976 85.1887Z" fill="#0F0F0F"/>
<path d="M184.123 84.2877V49.363H192.231V84.2877H184.123ZM183.846 44.1659V35.7812H192.508V44.1659H183.846Z" fill="#0F0F0F"/>
<path d="M159.714 84.2874L146.964 49.3628H155.626L164.496 76.0413L173.365 49.3628H182.097L169.346 84.2874H159.714Z" fill="#0F0F0F"/>
<path d="M114.017 84.2878V49.3632H122.055V54.6296C124.411 50.6798 128.915 48.4624 133.628 48.4624C141.458 48.4624 146.101 53.5209 146.101 62.3907V84.2878H138.062V63.3608C138.062 58.0944 135.152 55.184 130.717 55.184C125.797 55.184 122.055 59.2031 122.055 64.6081V84.2878H114.017Z" fill="#0F0F0F"/>
<path d="M99.8181 84.2877V35.7812H108.203V84.2877H99.8181Z" fill="#0F0F0F"/>
<path fill-rule="evenodd" clip-rule="evenodd" d="M59.751 84.3116C73.1458 84.3116 84.0044 73.4529 84.0044 60.0581C84.0044 46.6633 73.1458 35.8047 59.751 35.8047C46.3562 35.8047 35.4976 46.6633 35.4976 60.0581C35.4976 73.4529 46.3562 84.3116 59.751 84.3116ZM76.7285 43.0807H42.7736V77.0355H76.7285V43.0807Z" fill="#0F0F0F"/>
</svg>
